<svg version="1.1" xmlns="http://www.w3.org/2000/svg" width="385" height="350"><defs><clipPath id="qUBpMIOgzOgl"><path fill="none" stroke="none" d="M 55.5 5.5 L 355.5 5.5 L 355.5 305.5 L 55.5 305.5 L 55.5 5.5 Z"/></clipPath><clipPath id="XJHKmeGTxSJF"><path fill="none" stroke="none" d="M 55.5 5.5 L 355.5 5.5 L 355.5 305.5 L 55.5 305.5 L 55.5 5.5 Z"/></clipPath><clipPath id="xpTmFZhnmord"><path fill="none" stroke="none" d="M 55.5 5.5 L 355.5 5.5 L 355.5 305.5 L 55.5 305.5 L 55.5 5.5 Z"/></clipPath><clipPath id="lNEzttmDnlxA"><path fill="none" stroke="none" d="M 55.5 5.5 L 355.5 5.5 L 355.5 305.5 L 55.5 305.5 L 55.5 5.5 Z"/></clipPath><clipPath id="oEDcENSmrnBA"><path fill="none" stroke="none" d="M 55.5 5.5 L 355.5 5.5 L 355.5 305.5 L 55.5 305.5 L 55.5 5.5 Z"/></clipPath><clipPath id="SxgetlsUAyQU"><path fill="none" stroke="none" d="M 55.5 5.5 L 355.5 5.5 L 355.5 305.5 L 55.5 305.5 L 55.5 5.5 Z"/></clipPath></defs><path fill="rgb(255,255,255)" stroke="none" paint-order="stroke" d="M 0.5 0.5 L 385.5 0.5 L 385.5 350.5 L 0.5 350.5 L 0.5 0.5 Z" fill-opacity="1"/><rect fill="#FFFFFF" stroke="none" x="55" y="5" width="300" height="300" transform="matrix(1, 0, 0, 1, 0.5, 0.5)"/><path fill="rgb(255,255,255)" stroke="none" paint-order="stroke" d="M 55.5 5.5 L 355.5 5.5 L 355.5 305.5 L 55.5 305.5 L 55.5 5.5 Z" fill-opacity="1"/><path fill="none" stroke="rgb(229,229,229)" paint-order="fill" d="M 55.5 5.5 L 355.5 5.5 L 355.5 305.5 L 55.5 305.5 L 55.5 5.5 Z" stroke-opacity="1" stroke-linejoin="bevel" stroke-miterlimit="10"/><path fill="none" stroke="rgb(229,229,229)" paint-order="fill" d="M 69.5 305.5 L 69.5 5.5 M 123.5 305.5 L 123.5 5.5 M 178.5 305.5 L 178.5 5.5 M 232.5 305.5 L 232.5 5.5 M 287.5 305.5 L 287.5 5.5 M 341.5 305.5 L 341.5 5.5" stroke-opacity="1" stroke-linejoin="bevel" stroke-miterlimit="10" clip-path="url(#qUBpMIOgzOgl)"/><path fill="none" stroke="rgb(229,229,229)" paint-order="fill" d="M 55.5 291.5 L 355.5 291.5 M 55.5 237.5 L 355.5 237.5 M 55.5 182.5 L 355.5 182.5 M 55.5 128.5 L 355.5 128.5 M 55.5 73.5 L 355.5 73.5 M 55.5 19.5 L 355.5 19.5" stroke-opacity="1" stroke-linejoin="bevel" stroke-miterlimit="10" clip-path="url(#XJHKmeGTxSJF)"/><path fill="rgb(31,119,180)" stroke="rgb(31,119,180)" paint-order="fill" d="M 210.22727966308594 158.22727966308594 A 2 2 0 0 1 206.22727966308594 158.22727966308594 A 2 2 0 0 1 210.22727966308594 158.22727966308594" fill-opacity="1" clip-path="url(#xpTmFZhnmord)" stroke-opacity="1" stroke-linejoin="bevel" stroke-miterlimit="10"/><path fill="rgb(31,119,180)" stroke="rgb(31,119,180)" paint-order="fill" d="M 285.2272644042969 109.13636016845703 A 2 2 0 0 1 281.2272644042969 109.13636016845703 A 2 2 0 0 1 285.2272644042969 109.13636016845703" fill-opacity="1" clip-path="url(#xpTmFZhnmord)" stroke-opacity="1" stroke-linejoin="bevel" stroke-miterlimit="10"/><path fill="rgb(31,119,180)" stroke="rgb(31,119,180)" paint-order="fill" d="M 226.59091186523438 143.22727966308594 A 2 2 0 0 1 222.59091186523438 143.22727966308594 A 2 2 0 0 1 226.59091186523438 143.22727966308594" fill-opacity="1" clip-path="url(#xpTmFZhnmord)" stroke-opacity="1" stroke-linejoin="bevel" stroke-miterlimit="10"/><path fill="rgb(31,119,180)" stroke="rgb(31,119,180)" paint-order="fill" d="M 234.77272033691406 155.5 A 2 2 0 0 1 230.77272033691406 155.5 A 2 2 0 0 1 234.77272033691406 155.5" fill-opacity="1" clip-path="url(#xpTmFZhnmord)" stroke-opacity="1" stroke-linejoin="bevel" stroke-miterlimit="10"/><path fill="rgb(31,119,180)" stroke="rgb(31,119,180)" paint-order="fill" d="M 289.31817626953125 65.5 A 2 2 0 0 1 285.31817626953125 65.5 A 2 2 0 0 1 289.31817626953125 65.5" fill-opacity="1" clip-path="url(#xpTmFZhnmord)" stroke-opacity="1" stroke-linejoin="bevel" stroke-miterlimit="10"/><path fill="rgb(31,119,180)" stroke="rgb(31,119,180)" paint-order="fill" d="M 341.1363525390625 114.59091186523438 A 2 2 0 0 1 337.1363525390625 114.59091186523438 A 2 2 0 0 1 341.1363525390625 114.59091186523438" fill-opacity="1" clip-path="url(#xpTmFZhnmord)" stroke-opacity="1" stroke-linejoin="bevel" stroke-miterlimit="10"/><path fill="rgb(31,119,180)" stroke="rgb(31,119,180)" paint-order="fill" d="M 283.8636474609375 193.68182373046875 A 2 2 0 0 1 279.8636474609375 193.68182373046875 A 2 2 0 0 1 283.8636474609375 193.68182373046875" fill-opacity="1" clip-path="url(#xpTmFZhnmord)" stroke-opacity="1" stroke-linejoin="bevel" stroke-miterlimit="10"/><path fill="rgb(31,119,180)" stroke="rgb(31,119,180)" paint-order="fill" d="M 285.2272644042969 107.7727279663086 A 2 2 0 0 1 281.2272644042969 107.7727279663086 A 2 2 0 0 1 285.2272644042969 107.7727279663086" fill-opacity="1" clip-path="url(#xpTmFZhnmord)" stroke-opacity="1" stroke-linejoin="bevel" stroke-miterlimit="10"/><path fill="rgb(31,119,180)" stroke="rgb(31,119,180)" paint-order="fill" d="M 262.0454406738281 100.95454406738281 A 2 2 0 0 1 258.0454406738281 100.95454406738281 A 2 2 0 0 1 262.0454406738281 100.95454406738281" fill-opacity="1" clip-path="url(#xpTmFZhnmord)" stroke-opacity="1" stroke-linejoin="bevel" stroke-miterlimit="10"/><path fill="rgb(31,119,180)" stroke="rgb(31,119,180)" paint-order="fill" d="M 272.9545593261719 140.5 A 2 2 0 0 1 268.9545593261719 140.5 A 2 2 0 0 1 272.9545593261719 140.5" fill-opacity="1" clip-path="url(#xpTmFZhnmord)" stroke-opacity="1" stroke-linejoin="bevel" stroke-miterlimit="10"/><path fill="rgb(31,119,180)" stroke="rgb(31,119,180)" paint-order="fill" d="M 199.31817626953125 171.86363220214844 A 2 2 0 0 1 195.31817626953125 171.86363220214844 A 2 2 0 0 1 199.31817626953125 171.86363220214844" fill-opacity="1" clip-path="url(#xpTmFZhnmord)" stroke-opacity="1" stroke-linejoin="bevel" stroke-miterlimit="10"/><path fill="rgb(31,119,180)" stroke="rgb(31,119,180)" paint-order="fill" d="M 212.9545440673828 212.77272033691406 A 2 2 0 0 1 208.9545440673828 212.77272033691406 A 2 2 0 0 1 212.9545440673828 212.77272033691406" fill-opacity="1" clip-path="url(#xpTmFZhnmord)" stroke-opacity="1" stroke-linejoin="bevel" stroke-miterlimit="10"/><path fill="rgb(31,119,180)" stroke="rgb(31,119,180)" paint-order="fill" d="M 300.2272644042969 143.22727966308594 A 2 2 0 0 1 296.2272644042969 143.22727966308594 A 2 2 0 0 1 300.2272644042969 143.22727966308594" fill-opacity="1" clip-path="url(#xpTmFZhnmord)" stroke-opacity="1" stroke-linejoin="bevel" stroke-miterlimit="10"/><path fill="rgb(31,119,180)" stroke="rgb(31,119,180)" paint-order="fill" d="M 242.9545440673828 155.5 A 2 2 0 0 1 238.9545440673828 155.5 A 2 2 0 0 1 242.9545440673828 155.5" fill-opacity="1" clip-path="url(#xpTmFZhnmord)" stroke-opacity="1" stroke-linejoin="bevel" stroke-miterlimit="10"/><path fill="rgb(31,119,180)" stroke="rgb(31,119,180)" paint-order="fill" d="M 240.22727966308594 144.59091186523438 A 2 2 0 0 1 236.22727966308594 144.59091186523438 A 2 2 0 0 1 240.22727966308594 144.59091186523438" fill-opacity="1" clip-path="url(#xpTmFZhnmord)" stroke-opacity="1" stroke-linejoin="bevel" stroke-miterlimit="10"/><path fill="rgb(31,119,180)" stroke="rgb(31,119,180)" paint-order="fill" d="M 233.40908813476562 136.40908813476562 A 2 2 0 0 1 229.40908813476562 136.40908813476562 A 2 2 0 0 1 233.40908813476562 136.40908813476562" fill-opacity="1" clip-path="url(#xpTmFZhnmord)" stroke-opacity="1" stroke-linejoin="bevel" stroke-miterlimit="10"/><path fill="rgb(31,119,180)" stroke="rgb(31,119,180)" paint-order="fill" d="M 277.0454406738281 195.0454559326172 A 2 2 0 0 1 273.0454406738281 195.0454559326172 A 2 2 0 0 1 277.0454406738281 195.0454559326172" fill-opacity="1" clip-path="url(#xpTmFZhnmord)" stroke-opacity="1" stroke-linejoin="bevel" stroke-miterlimit="10"/><path fill="rgb(31,119,180)" stroke="rgb(31,119,180)" paint-order="fill" d="M 283.8636474609375 109.13636016845703 A 2 2 0 0 1 279.8636474609375 109.13636016845703 A 2 2 0 0 1 283.8636474609375 109.13636016845703" fill-opacity="1" clip-path="url(#xpTmFZhnmord)" stroke-opacity="1" stroke-linejoin="bevel" stroke-miterlimit="10"/><path fill="rgb(31,119,180)" stroke="rgb(31,119,180)" paint-order="fill" d="M 242.9545440673828 225.0454559326172 A 2 2 0 0 1 238.9545440673828 225.0454559326172 A 2 2 0 0 1 242.9545440673828 225.0454559326172" fill-opacity="1" clip-path="url(#xpTmFZhnmord)" stroke-opacity="1" stroke-linejoin="bevel" stroke-miterlimit="10"/><path fill="rgb(31,119,180)" stroke="rgb(31,119,180)" paint-order="fill" d="M 292.0454406738281 118.68181610107422 A 2 2 0 0 1 288.0454406738281 118.68181610107422 A 2 2 0 0 1 292.0454406738281 118.68181610107422" fill-opacity="1" clip-path="url(#xpTmFZhnmord)" stroke-opacity="1" stroke-linejoin="bevel" stroke-miterlimit="10"/><path fill="rgb(31,119,180)" stroke="rgb(31,119,180)" paint-order="fill" d="M 136.59091186523438 196.40908813476562 A 2 2 0 0 1 132.59091186523438 196.40908813476562 A 2 2 0 0 1 136.59091186523438 196.40908813476562" fill-opacity="1" clip-path="url(#xpTmFZhnmord)" stroke-opacity="1" stroke-linejoin="bevel" stroke-miterlimit="10"/><path fill="rgb(31,119,180)" stroke="rgb(31,119,180)" paint-order="fill" d="M 207.5 169.13636779785156 A 2 2 0 0 1 203.5 169.13636779785156 A 2 2 0 0 1 207.5 169.13636779785156" fill-opacity="1" clip-path="url(#xpTmFZhnmord)" stroke-opacity="1" stroke-linejoin="bevel" stroke-miterlimit="10"/><path fill="rgb(31,119,180)" stroke="rgb(31,119,180)" paint-order="fill" d="M 292.0454406738281 144.59091186523438 A 2 2 0 0 1 288.0454406738281 144.59091186523438 A 2 2 0 0 1 292.0454406738281 144.59091186523438" fill-opacity="1" clip-path="url(#xpTmFZhnmord)" stroke-opacity="1" stroke-linejoin="bevel" stroke-miterlimit="10"/><path fill="rgb(31,119,180)" stroke="rgb(31,119,180)" paint-order="fill" d="M 253.86363220214844 147.31817626953125 A 2 2 0 0 1 249.86363220214844 147.31817626953125 A 2 2 0 0 1 253.86363220214844 147.31817626953125" fill-opacity="1" clip-path="url(#xpTmFZhnmord)" stroke-opacity="1" stroke-linejoin="bevel" stroke-miterlimit="10"/><path fill="rgb(31,119,180)" stroke="rgb(31,119,180)" paint-order="fill" d="M 281.1363525390625 62.772727966308594 A 2 2 0 0 1 277.1363525390625 62.772727966308594 A 2 2 0 0 1 281.1363525390625 62.772727966308594" fill-opacity="1" clip-path="url(#xpTmFZhnmord)" stroke-opacity="1" stroke-linejoin="bevel" stroke-miterlimit="10"/><path fill="rgb(31,119,180)" stroke="rgb(31,119,180)" paint-order="fill" d="M 343.8636474609375 43.681819915771484 A 2 2 0 0 1 339.8636474609375 43.681819915771484 A 2 2 0 0 1 343.8636474609375 43.681819915771484" fill-opacity="1" clip-path="url(#xpTmFZhnmord)" stroke-opacity="1" stroke-linejoin="bevel" stroke-miterlimit="10"/><path fill="rgb(31,119,180)" stroke="rgb(31,119,180)" paint-order="fill" d="M 256.5909118652344 207.31817626953125 A 2 2 0 0 1 252.59091186523438 207.31817626953125 A 2 2 0 0 1 256.5909118652344 207.31817626953125" fill-opacity="1" clip-path="url(#xpTmFZhnmord)" stroke-opacity="1" stroke-linejoin="bevel" stroke-miterlimit="10"/><path fill="rgb(31,119,180)" stroke="rgb(31,119,180)" paint-order="fill" d="M 202.0454559326172 152.77272033691406 A 2 2 0 0 1 198.0454559326172 152.77272033691406 A 2 2 0 0 1 202.0454559326172 152.77272033691406" fill-opacity="1" clip-path="url(#xpTmFZhnmord)" stroke-opacity="1" stroke-linejoin="bevel" stroke-miterlimit="10"/><path fill="rgb(31,119,180)" stroke="rgb(31,119,180)" paint-order="fill" d="M 272.9545593261719 174.59091186523438 A 2 2 0 0 1 268.9545593261719 174.59091186523438 A 2 2 0 0 1 272.9545593261719 174.59091186523438" fill-opacity="1" clip-path="url(#xpTmFZhnmord)" stroke-opacity="1" stroke-linejoin="bevel" stroke-miterlimit="10"/><path fill="rgb(31,119,180)" stroke="rgb(31,119,180)" paint-order="fill" d="M 294.7727355957031 158.22727966308594 A 2 2 0 0 1 290.7727355957031 158.22727966308594 A 2 2 0 0 1 294.7727355957031 158.22727966308594" fill-opacity="1" clip-path="url(#xpTmFZhnmord)" stroke-opacity="1" stroke-linejoin="bevel" stroke-miterlimit="10"/><path fill="rgb(31,119,180)" stroke="rgb(31,119,180)" paint-order="fill" d="M 253.86363220214844 212.77272033691406 A 2 2 0 0 1 249.86363220214844 212.77272033691406 A 2 2 0 0 1 253.86363220214844 212.77272033691406" fill-opacity="1" clip-path="url(#xpTmFZhnmord)" stroke-opacity="1" stroke-linejoin="bevel" stroke-miterlimit="10"/><path fill="rgb(31,119,180)" stroke="rgb(31,119,180)" paint-order="fill" d="M 296.1363525390625 84.59091186523438 A 2 2 0 0 1 292.1363525390625 84.59091186523438 A 2 2 0 0 1 296.1363525390625 84.59091186523438" fill-opacity="1" clip-path="url(#xpTmFZhnmord)" stroke-opacity="1" stroke-linejoin="bevel" stroke-miterlimit="10"/><path fill="rgb(31,119,180)" stroke="rgb(31,119,180)" paint-order="fill" d="M 253.86363220214844 182.77272033691406 A 2 2 0 0 1 249.86363220214844 182.77272033691406 A 2 2 0 0 1 253.86363220214844 182.77272033691406" fill-opacity="1" clip-path="url(#xpTmFZhnmord)" stroke-opacity="1" stroke-linejoin="bevel" stroke-miterlimit="10"/><path fill="rgb(31,119,180)" stroke="rgb(31,119,180)" paint-order="fill" d="M 311.1363525390625 76.40908813476562 A 2 2 0 0 1 307.1363525390625 76.40908813476562 A 2 2 0 0 1 311.1363525390625 76.40908813476562" fill-opacity="1" clip-path="url(#xpTmFZhnmord)" stroke-opacity="1" stroke-linejoin="bevel" stroke-miterlimit="10"/><path fill="rgb(31,119,180)" stroke="rgb(31,119,180)" paint-order="fill" d="M 297.5 140.5 A 2 2 0 0 1 293.5 140.5 A 2 2 0 0 1 297.5 140.5" fill-opacity="1" clip-path="url(#xpTmFZhnmord)" stroke-opacity="1" stroke-linejoin="bevel" stroke-miterlimit="10"/><path fill="rgb(31,119,180)" stroke="rgb(31,119,180)" paint-order="fill" d="M 244.31817626953125 106.40908813476562 A 2 2 0 0 1 240.31817626953125 106.40908813476562 A 2 2 0 0 1 244.31817626953125 106.40908813476562" fill-opacity="1" clip-path="url(#xpTmFZhnmord)" stroke-opacity="1" stroke-linejoin="bevel" stroke-miterlimit="10"/><path fill="rgb(31,119,180)" stroke="rgb(31,119,180)" paint-order="fill" d="M 290.68182373046875 114.59091186523438 A 2 2 0 0 1 286.68182373046875 114.59091186523438 A 2 2 0 0 1 290.68182373046875 114.59091186523438" fill-opacity="1" clip-path="url(#xpTmFZhnmord)" stroke-opacity="1" stroke-linejoin="bevel" stroke-miterlimit="10"/><path fill="rgb(31,119,180)" stroke="rgb(31,119,180)" paint-order="fill" d="M 264.7727355957031 106.40908813476562 A 2 2 0 0 1 260.7727355957031 106.40908813476562 A 2 2 0 0 1 264.7727355957031 106.40908813476562" fill-opacity="1" clip-path="url(#xpTmFZhnmord)" stroke-opacity="1" stroke-linejoin="bevel" stroke-miterlimit="10"/><path fill="rgb(31,119,180)" stroke="rgb(31,119,180)" paint-order="fill" d="M 330.2272644042969 114.59091186523438 A 2 2 0 0 1 326.2272644042969 114.59091186523438 A 2 2 0 0 1 330.2272644042969 114.59091186523438" fill-opacity="1" clip-path="url(#xpTmFZhnmord)" stroke-opacity="1" stroke-linejoin="bevel" stroke-miterlimit="10"/><path fill="rgb(31,119,180)" stroke="rgb(31,119,180)" paint-order="fill" d="M 285.2272644042969 133.68182373046875 A 2 2 0 0 1 281.2272644042969 133.68182373046875 A 2 2 0 0 1 285.2272644042969 133.68182373046875" fill-opacity="1" clip-path="url(#xpTmFZhnmord)" stroke-opacity="1" stroke-linejoin="bevel" stroke-miterlimit="10"/><path fill="rgb(31,119,180)" stroke="rgb(31,119,180)" paint-order="fill" d="M 214.31817626953125 196.40908813476562 A 2 2 0 0 1 210.31817626953125 196.40908813476562 A 2 2 0 0 1 214.31817626953125 196.40908813476562" fill-opacity="1" clip-path="url(#xpTmFZhnmord)" stroke-opacity="1" stroke-linejoin="bevel" stroke-miterlimit="10"/><path fill="rgb(31,119,180)" stroke="rgb(31,119,180)" paint-order="fill" d="M 259.31817626953125 129.59091186523438 A 2 2 0 0 1 255.31817626953125 129.59091186523438 A 2 2 0 0 1 259.31817626953125 129.59091186523438" fill-opacity="1" clip-path="url(#xpTmFZhnmord)" stroke-opacity="1" stroke-linejoin="bevel" stroke-miterlimit="10"/><path fill="rgb(31,119,180)" stroke="rgb(31,119,180)" paint-order="fill" d="M 237.5 155.5 A 2 2 0 0 1 233.5 155.5 A 2 2 0 0 1 237.5 155.5" fill-opacity="1" clip-path="url(#xpTmFZhnmord)" stroke-opacity="1" stroke-linejoin="bevel" stroke-miterlimit="10"/><path fill="rgb(31,119,180)" stroke="rgb(31,119,180)" paint-order="fill" d="M 251.13636779785156 162.31817626953125 A 2 2 0 0 1 247.13636779785156 162.31817626953125 A 2 2 0 0 1 251.13636779785156 162.31817626953125" fill-opacity="1" clip-path="url(#xpTmFZhnmord)" stroke-opacity="1" stroke-linejoin="bevel" stroke-miterlimit="10"/><path fill="rgb(31,119,180)" stroke="rgb(31,119,180)" paint-order="fill" d="M 322.0454406738281 91.40908813476562 A 2 2 0 0 1 318.0454406738281 91.40908813476562 A 2 2 0 0 1 322.0454406738281 91.40908813476562" fill-opacity="1" clip-path="url(#xpTmFZhnmord)" stroke-opacity="1" stroke-linejoin="bevel" stroke-miterlimit="10"/><path fill="rgb(31,119,180)" stroke="rgb(31,119,180)" paint-order="fill" d="M 289.31817626953125 100.95454406738281 A 2 2 0 0 1 285.31817626953125 100.95454406738281 A 2 2 0 0 1 289.31817626953125 100.95454406738281" fill-opacity="1" clip-path="url(#xpTmFZhnmord)" stroke-opacity="1" stroke-linejoin="bevel" stroke-miterlimit="10"/><path fill="rgb(31,119,180)" stroke="rgb(31,119,180)" paint-order="fill" d="M 322.0454406738281 182.77272033691406 A 2 2 0 0 1 318.0454406738281 182.77272033691406 A 2 2 0 0 1 322.0454406738281 182.77272033691406" fill-opacity="1" clip-path="url(#xpTmFZhnmord)" stroke-opacity="1" stroke-linejoin="bevel" stroke-miterlimit="10"/><path fill="rgb(31,119,180)" stroke="rgb(31,119,180)" paint-order="fill" d="M 297.5 109.13636016845703 A 2 2 0 0 1 293.5 109.13636016845703 A 2 2 0 0 1 297.5 109.13636016845703" fill-opacity="1" clip-path="url(#xpTmFZhnmord)" stroke-opacity="1" stroke-linejoin="bevel" stroke-miterlimit="10"/><path fill="rgb(31,119,180)" stroke="rgb(31,119,180)" paint-order="fill" d="M 268.8636474609375 124.13636016845703 A 2 2 0 0 1 264.8636474609375 124.13636016845703 A 2 2 0 0 1 268.8636474609375 124.13636016845703" fill-opacity="1" clip-path="url(#xpTmFZhnmord)" stroke-opacity="1" stroke-linejoin="bevel" stroke-miterlimit="10"/><path fill="rgb(31,119,180)" stroke="rgb(31,119,180)" paint-order="fill" d="M 337.0454406738281 65.5 A 2 2 0 0 1 333.0454406738281 65.5 A 2 2 0 0 1 337.0454406738281 65.5" fill-opacity="1" clip-path="url(#xpTmFZhnmord)" stroke-opacity="1" stroke-linejoin="bevel" stroke-miterlimit="10"/><path fill="rgb(31,119,180)" stroke="rgb(31,119,180)" paint-order="fill" d="M 256.5909118652344 182.77272033691406 A 2 2 0 0 1 252.59091186523438 182.77272033691406 A 2 2 0 0 1 256.5909118652344 182.77272033691406" fill-opacity="1" clip-path="url(#xpTmFZhnmord)" stroke-opacity="1" stroke-linejoin="bevel" stroke-miterlimit="10"/><path fill="rgb(31,119,180)" stroke="rgb(31,119,180)" paint-order="fill" d="M 253.86363220214844 147.31817626953125 A 2 2 0 0 1 249.86363220214844 147.31817626953125 A 2 2 0 0 1 253.86363220214844 147.31817626953125" fill-opacity="1" clip-path="url(#xpTmFZhnmord)" stroke-opacity="1" stroke-linejoin="bevel" stroke-miterlimit="10"/><path fill="rgb(31,119,180)" stroke="rgb(31,119,180)" paint-order="fill" d="M 248.40908813476562 141.86363220214844 A 2 2 0 0 1 244.40908813476562 141.86363220214844 A 2 2 0 0 1 248.40908813476562 141.86363220214844" fill-opacity="1" clip-path="url(#xpTmFZhnmord)" stroke-opacity="1" stroke-linejoin="bevel" stroke-miterlimit="10"/><path fill="rgb(31,119,180)" stroke="rgb(31,119,180)" paint-order="fill" d="M 294.7727355957031 70.95454406738281 A 2 2 0 0 1 290.7727355957031 70.95454406738281 A 2 2 0 0 1 294.7727355957031 70.95454406738281" fill-opacity="1" clip-path="url(#xpTmFZhnmord)" stroke-opacity="1" stroke-linejoin="bevel" stroke-miterlimit="10"/><path fill="rgb(31,119,180)" stroke="rgb(31,119,180)" paint-order="fill" d="M 275.68182373046875 117.31818389892578 A 2 2 0 0 1 271.68182373046875 117.31818389892578 A 2 2 0 0 1 275.68182373046875 117.31818389892578" fill-opacity="1" clip-path="url(#xpTmFZhnmord)" stroke-opacity="1" stroke-linejoin="bevel" stroke-miterlimit="10"/><path fill="rgb(31,119,180)" stroke="rgb(31,119,180)" paint-order="fill" d="M 327.5 98.2272720336914 A 2 2 0 0 1 323.5 98.2272720336914 A 2 2 0 0 1 327.5 98.2272720336914" fill-opacity="1" clip-path="url(#xpTmFZhnmord)" stroke-opacity="1" stroke-linejoin="bevel" stroke-miterlimit="10"/><path fill="rgb(31,119,180)" stroke="rgb(31,119,180)" paint-order="fill" d="M 281.1363525390625 130.9545440673828 A 2 2 0 0 1 277.1363525390625 130.9545440673828 A 2 2 0 0 1 281.1363525390625 130.9545440673828" fill-opacity="1" clip-path="url(#xpTmFZhnmord)" stroke-opacity="1" stroke-linejoin="bevel" stroke-miterlimit="10"/><path fill="rgb(31,119,180)" stroke="rgb(31,119,180)" paint-order="fill" d="M 322.0454406738281 109.13636016845703 A 2 2 0 0 1 318.0454406738281 109.13636016845703 A 2 2 0 0 1 322.0454406738281 109.13636016845703" fill-opacity="1" clip-path="url(#xpTmFZhnmord)" stroke-opacity="1" stroke-linejoin="bevel" stroke-miterlimit="10"/><path fill="rgb(31,119,180)" stroke="rgb(31,119,180)" paint-order="fill" d="M 292.0454406738281 133.68182373046875 A 2 2 0 0 1 288.0454406738281 133.68182373046875 A 2 2 0 0 1 292.0454406738281 133.68182373046875" fill-opacity="1" clip-path="url(#xpTmFZhnmord)" stroke-opacity="1" stroke-linejoin="bevel" stroke-miterlimit="10"/><path fill="rgb(31,119,180)" stroke="rgb(31,119,180)" paint-order="fill" d="M 229.31817626953125 155.5 A 2 2 0 0 1 225.31817626953125 155.5 A 2 2 0 0 1 229.31817626953125 155.5" fill-opacity="1" clip-path="url(#xpTmFZhnmord)" stroke-opacity="1" stroke-linejoin="bevel" stroke-miterlimit="10"/><path fill="rgb(31,119,180)" stroke="rgb(31,119,180)" paint-order="fill" d="M 320.68182373046875 43.681819915771484 A 2 2 0 0 1 316.68182373046875 43.681819915771484 A 2 2 0 0 1 320.68182373046875 43.681819915771484" fill-opacity="1" clip-path="url(#xpTmFZhnmord)" stroke-opacity="1" stroke-linejoin="bevel" stroke-miterlimit="10"/><path fill="rgb(31,119,180)" stroke="rgb(31,119,180)" paint-order="fill" d="M 343.8636474609375 155.5 A 2 2 0 0 1 339.8636474609375 155.5 A 2 2 0 0 1 343.8636474609375 155.5" fill-opacity="1" clip-path="url(#xpTmFZhnmord)" stroke-opacity="1" stroke-linejoin="bevel" stroke-miterlimit="10"/><path fill="rgb(31,119,180)" stroke="rgb(31,119,180)" paint-order="fill" d="M 302.9545593261719 60.04545593261719 A 2 2 0 0 1 298.9545593261719 60.04545593261719 A 2 2 0 0 1 302.9545593261719 60.04545593261719" fill-opacity="1" clip-path="url(#xpTmFZhnmord)" stroke-opacity="1" stroke-linejoin="bevel" stroke-miterlimit="10"/><path fill="rgb(31,119,180)" stroke="rgb(31,119,180)" paint-order="fill" d="M 272.9545593261719 117.31818389892578 A 2 2 0 0 1 268.9545593261719 117.31818389892578 A 2 2 0 0 1 272.9545593261719 117.31818389892578" fill-opacity="1" clip-path="url(#xpTmFZhnmord)" stroke-opacity="1" stroke-linejoin="bevel" stroke-miterlimit="10"/><path fill="rgb(31,119,180)" stroke="rgb(31,119,180)" paint-order="fill" d="M 287.9545593261719 68.2272720336914 A 2 2 0 0 1 283.9545593261719 68.2272720336914 A 2 2 0 0 1 287.9545593261719 68.2272720336914" fill-opacity="1" clip-path="url(#xpTmFZhnmord)" stroke-opacity="1" stroke-linejoin="bevel" stroke-miterlimit="10"/><path fill="rgb(31,119,180)" stroke="rgb(31,119,180)" paint-order="fill" d="M 263.4090881347656 129.59091186523438 A 2 2 0 0 1 259.4090881347656 129.59091186523438 A 2 2 0 0 1 263.4090881347656 129.59091186523438" fill-opacity="1" clip-path="url(#xpTmFZhnmord)" stroke-opacity="1" stroke-linejoin="bevel" stroke-miterlimit="10"/><path fill="rgb(31,119,180)" stroke="rgb(31,119,180)" paint-order="fill" d="M 267.5 128.2272720336914 A 2 2 0 0 1 263.5 128.2272720336914 A 2 2 0 0 1 267.5 128.2272720336914" fill-opacity="1" clip-path="url(#xpTmFZhnmord)" stroke-opacity="1" stroke-linejoin="bevel" stroke-miterlimit="10"/><path fill="rgb(31,119,180)" stroke="rgb(31,119,180)" paint-order="fill" d="M 302.9545593261719 87.31818389892578 A 2 2 0 0 1 298.9545593261719 87.31818389892578 A 2 2 0 0 1 302.9545593261719 87.31818389892578" fill-opacity="1" clip-path="url(#xpTmFZhnmord)" stroke-opacity="1" stroke-linejoin="bevel" stroke-miterlimit="10"/><path fill="rgb(31,119,180)" stroke="rgb(31,119,180)" paint-order="fill" d="M 245.68182373046875 129.59091186523438 A 2 2 0 0 1 241.68182373046875 129.59091186523438 A 2 2 0 0 1 245.68182373046875 129.59091186523438" fill-opacity="1" clip-path="url(#xpTmFZhnmord)" stroke-opacity="1" stroke-linejoin="bevel" stroke-miterlimit="10"/><path fill="rgb(31,119,180)" stroke="rgb(31,119,180)" paint-order="fill" d="M 281.1363525390625 90.04545593261719 A 2 2 0 0 1 277.1363525390625 90.04545593261719 A 2 2 0 0 1 281.1363525390625 90.04545593261719" fill-opacity="1" clip-path="url(#xpTmFZhnmord)" stroke-opacity="1" stroke-linejoin="bevel" stroke-miterlimit="10"/><path fill="rgb(31,119,180)" stroke="rgb(31,119,180)" paint-order="fill" d="M 272.9545593261719 73.68181610107422 A 2 2 0 0 1 268.9545593261719 73.68181610107422 A 2 2 0 0 1 272.9545593261719 73.68181610107422" fill-opacity="1" clip-path="url(#xpTmFZhnmord)" stroke-opacity="1" stroke-linejoin="bevel" stroke-miterlimit="10"/><path fill="rgb(31,119,180)" stroke="rgb(31,119,180)" paint-order="fill" d="M 248.40908813476562 70.95454406738281 A 2 2 0 0 1 244.40908813476562 70.95454406738281 A 2 2 0 0 1 248.40908813476562 70.95454406738281" fill-opacity="1" clip-path="url(#xpTmFZhnmord)" stroke-opacity="1" stroke-linejoin="bevel" stroke-miterlimit="10"/><path fill="rgb(31,119,180)" stroke="rgb(31,119,180)" paint-order="fill" d="M 292.0454406738281 152.77272033691406 A 2 2 0 0 1 288.0454406738281 152.77272033691406 A 2 2 0 0 1 292.0454406738281 152.77272033691406" fill-opacity="1" clip-path="url(#xpTmFZhnmord)" stroke-opacity="1" stroke-linejoin="bevel" stroke-miterlimit="10"/><path fill="rgb(31,119,180)" stroke="rgb(31,119,180)" paint-order="fill" d="M 292.0454406738281 92.7727279663086 A 2 2 0 0 1 288.0454406738281 92.7727279663086 A 2 2 0 0 1 292.0454406738281 92.7727279663086" fill-opacity="1" clip-path="url(#xpTmFZhnmord)" stroke-opacity="1" stroke-linejoin="bevel" stroke-miterlimit="10"/><path fill="rgb(255,165,0)" stroke="rgb(255,165,0)" paint-order="fill" d="M 324.7727355957031 46.40909194946289 A 2 2 0 0 1 320.7727355957031 46.40909194946289 A 2 2 0 0 1 324.7727355957031 46.40909194946289" fill-opacity="1" clip-path="url(#lNEzttmDnlxA)" stroke-opacity="1" stroke-linejoin="bevel" stroke-miterlimit="10"/><path fill="rgb(255,165,0)" stroke="rgb(255,165,0)" paint-order="fill" d="M 275.68182373046875 155.5 A 2 2 0 0 1 271.68182373046875 155.5 A 2 2 0 0 1 275.68182373046875 155.5" fill-opacity="1" clip-path="url(#lNEzttmDnlxA)" stroke-opacity="1" stroke-linejoin="bevel" stroke-miterlimit="10"/><path fill="rgb(255,165,0)" stroke="rgb(255,165,0)" paint-order="fill" d="M 313.8636474609375 51.8636360168457 A 2 2 0 0 1 309.8636474609375 51.8636360168457 A 2 2 0 0 1 313.8636474609375 51.8636360168457" fill-opacity="1" clip-path="url(#lNEzttmDnlxA)" stroke-opacity="1" stroke-linejoin="bevel" stroke-miterlimit="10"/><path fill="rgb(255,165,0)" stroke="rgb(255,165,0)" paint-order="fill" d="M 311.1363525390625 73.68181610107422 A 2 2 0 0 1 307.1363525390625 73.68181610107422 A 2 2 0 0 1 311.1363525390625 73.68181610107422" fill-opacity="1" clip-path="url(#lNEzttmDnlxA)" stroke-opacity="1" stroke-linejoin="bevel" stroke-miterlimit="10"/><path fill="rgb(255,165,0)" stroke="rgb(255,165,0)" paint-order="fill" d="M 248.40908813476562 158.22727966308594 A 2 2 0 0 1 244.40908813476562 158.22727966308594 A 2 2 0 0 1 248.40908813476562 158.22727966308594" fill-opacity="1" clip-path="url(#lNEzttmDnlxA)" stroke-opacity="1" stroke-linejoin="bevel" stroke-miterlimit="10"/><path fill="rgb(255,165,0)" stroke="rgb(255,165,0)" paint-order="fill" d="M 247.0454559326172 99.59091186523438 A 2 2 0 0 1 243.0454559326172 99.59091186523438 A 2 2 0 0 1 247.0454559326172 99.59091186523438" fill-opacity="1" clip-path="url(#lNEzttmDnlxA)" stroke-opacity="1" stroke-linejoin="bevel" stroke-miterlimit="10"/><path fill="rgb(255,165,0)" stroke="rgb(255,165,0)" paint-order="fill" d="M 251.13636779785156 117.31818389892578 A 2 2 0 0 1 247.13636779785156 117.31818389892578 A 2 2 0 0 1 251.13636779785156 117.31818389892578" fill-opacity="1" clip-path="url(#lNEzttmDnlxA)" stroke-opacity="1" stroke-linejoin="bevel" stroke-miterlimit="10"/><path fill="rgb(255,165,0)" stroke="rgb(255,165,0)" paint-order="fill" d="M 240.22727966308594 125.5 A 2 2 0 0 1 236.22727966308594 125.5 A 2 2 0 0 1 240.22727966308594 125.5" fill-opacity="1" clip-path="url(#lNEzttmDnlxA)" stroke-opacity="1" stroke-linejoin="bevel" stroke-miterlimit="10"/><path fill="rgb(255,165,0)" stroke="rgb(255,165,0)" paint-order="fill" d="M 256.5909118652344 83.2272720336914 A 2 2 0 0 1 252.59091186523438 83.2272720336914 A 2 2 0 0 1 256.5909118652344 83.2272720336914" fill-opacity="1" clip-path="url(#lNEzttmDnlxA)" stroke-opacity="1" stroke-linejoin="bevel" stroke-miterlimit="10"/><path fill="rgb(255,165,0)" stroke="rgb(255,165,0)" paint-order="fill" d="M 264.7727355957031 114.59091186523438 A 2 2 0 0 1 260.7727355957031 114.59091186523438 A 2 2 0 0 1 264.7727355957031 114.59091186523438" fill-opacity="1" clip-path="url(#lNEzttmDnlxA)" stroke-opacity="1" stroke-linejoin="bevel" stroke-miterlimit="10"/><path fill="rgb(255,165,0)" stroke="rgb(255,165,0)" paint-order="fill" d="M 294.7727355957031 117.31818389892578 A 2 2 0 0 1 290.7727355957031 117.31818389892578 A 2 2 0 0 1 294.7727355957031 117.31818389892578" fill-opacity="1" clip-path="url(#lNEzttmDnlxA)" stroke-opacity="1" stroke-linejoin="bevel" stroke-miterlimit="10"/><path fill="rgb(255,165,0)" stroke="rgb(255,165,0)" paint-order="fill" d="M 278.4090881347656 85.95454406738281 A 2 2 0 0 1 274.4090881347656 85.95454406738281 A 2 2 0 0 1 278.4090881347656 85.95454406738281" fill-opacity="1" clip-path="url(#lNEzttmDnlxA)" stroke-opacity="1" stroke-linejoin="bevel" stroke-miterlimit="10"/><path fill="rgb(255,165,0)" stroke="rgb(255,165,0)" paint-order="fill" d="M 287.9545593261719 120.04545593261719 A 2 2 0 0 1 283.9545593261719 120.04545593261719 A 2 2 0 0 1 287.9545593261719 120.04545593261719" fill-opacity="1" clip-path="url(#lNEzttmDnlxA)" stroke-opacity="1" stroke-linejoin="bevel" stroke-miterlimit="10"/><path fill="rgb(255,165,0)" stroke="rgb(255,165,0)" paint-order="fill" d="M 221.13636779785156 130.9545440673828 A 2 2 0 0 1 217.13636779785156 130.9545440673828 A 2 2 0 0 1 221.13636779785156 130.9545440673828" fill-opacity="1" clip-path="url(#lNEzttmDnlxA)" stroke-opacity="1" stroke-linejoin="bevel" stroke-miterlimit="10"/><path fill="rgb(255,165,0)" stroke="rgb(255,165,0)" paint-order="fill" d="M 302.9545593261719 64.1363639831543 A 2 2 0 0 1 298.9545593261719 64.1363639831543 A 2 2 0 0 1 302.9545593261719 64.1363639831543" fill-opacity="1" clip-path="url(#lNEzttmDnlxA)" stroke-opacity="1" stroke-linejoin="bevel" stroke-miterlimit="10"/><path fill="rgb(255,165,0)" stroke="rgb(255,165,0)" paint-order="fill" d="M 262.0454406738281 139.13636779785156 A 2 2 0 0 1 258.0454406738281 139.13636779785156 A 2 2 0 0 1 262.0454406738281 139.13636779785156" fill-opacity="1" clip-path="url(#lNEzttmDnlxA)" stroke-opacity="1" stroke-linejoin="bevel" stroke-miterlimit="10"/><path fill="rgb(255,165,0)" stroke="rgb(255,165,0)" paint-order="fill" d="M 219.77272033691406 92.7727279663086 A 2 2 0 0 1 215.77272033691406 92.7727279663086 A 2 2 0 0 1 219.77272033691406 92.7727279663086" fill-opacity="1" clip-path="url(#lNEzttmDnlxA)" stroke-opacity="1" stroke-linejoin="bevel" stroke-miterlimit="10"/><path fill="rgb(255,165,0)" stroke="rgb(255,165,0)" paint-order="fill" d="M 312.5 117.31818389892578 A 2 2 0 0 1 308.5 117.31818389892578 A 2 2 0 0 1 312.5 117.31818389892578" fill-opacity="1" clip-path="url(#lNEzttmDnlxA)" stroke-opacity="1" stroke-linejoin="bevel" stroke-miterlimit="10"/><path fill="rgb(255,165,0)" stroke="rgb(255,165,0)" paint-order="fill" d="M 309.7727355957031 128.2272720336914 A 2 2 0 0 1 305.7727355957031 128.2272720336914 A 2 2 0 0 1 309.7727355957031 128.2272720336914" fill-opacity="1" clip-path="url(#lNEzttmDnlxA)" stroke-opacity="1" stroke-linejoin="bevel" stroke-miterlimit="10"/><path fill="rgb(255,165,0)" stroke="rgb(255,165,0)" paint-order="fill" d="M 343.8636474609375 19.136363983154297 A 2 2 0 0 1 339.8636474609375 19.136363983154297 A 2 2 0 0 1 343.8636474609375 19.136363983154297" fill-opacity="1" clip-path="url(#lNEzttmDnlxA)" stroke-opacity="1" stroke-linejoin="bevel" stroke-miterlimit="10"/><path fill="rgb(255,165,0)" stroke="rgb(255,165,0)" paint-order="fill" d="M 281.1363525390625 99.59091186523438 A 2 2 0 0 1 277.1363525390625 99.59091186523438 A 2 2 0 0 1 281.1363525390625 99.59091186523438" fill-opacity="1" clip-path="url(#lNEzttmDnlxA)" stroke-opacity="1" stroke-linejoin="bevel" stroke-miterlimit="10"/><path fill="rgb(255,165,0)" stroke="rgb(255,165,0)" paint-order="fill" d="M 343.8636474609375 19.136363983154297 A 2 2 0 0 1 339.8636474609375 19.136363983154297 A 2 2 0 0 1 343.8636474609375 19.136363983154297" fill-opacity="1" clip-path="url(#lNEzttmDnlxA)" stroke-opacity="1" stroke-linejoin="bevel" stroke-miterlimit="10"/><path fill="rgb(255,165,0)" stroke="rgb(255,165,0)" paint-order="fill" d="M 289.31817626953125 128.2272720336914 A 2 2 0 0 1 285.31817626953125 128.2272720336914 A 2 2 0 0 1 289.31817626953125 128.2272720336914" fill-opacity="1" clip-path="url(#lNEzttmDnlxA)" stroke-opacity="1" stroke-linejoin="bevel" stroke-miterlimit="10"/><path fill="rgb(255,165,0)" stroke="rgb(255,165,0)" paint-order="fill" d="M 260.68182373046875 91.40908813476562 A 2 2 0 0 1 256.68182373046875 91.40908813476562 A 2 2 0 0 1 260.68182373046875 91.40908813476562" fill-opacity="1" clip-path="url(#lNEzttmDnlxA)" stroke-opacity="1" stroke-linejoin="bevel" stroke-miterlimit="10"/><path fill="rgb(255,165,0)" stroke="rgb(255,165,0)" paint-order="fill" d="M 292.0454406738281 144.59091186523438 A 2 2 0 0 1 288.0454406738281 144.59091186523438 A 2 2 0 0 1 292.0454406738281 144.59091186523438" fill-opacity="1" clip-path="url(#lNEzttmDnlxA)" stroke-opacity="1" stroke-linejoin="bevel" stroke-miterlimit="10"/><path fill="none" stroke="rgb(0,0,0)" paint-order="fill" d="M 55.5 305.5 L 355.5 305.5" stroke-opacity="1" stroke-linejoin="bevel" stroke-miterlimit="10"/><path fill="none" stroke="rgb(0,0,0)" paint-order="fill" d="M 69.5 311.5 L 69.5 303.5 M 123.5 311.5 L 123.5 303.5 M 178.5 311.5 L 178.5 303.5 M 232.5 311.5 L 232.5 303.5 M 287.5 311.5 L 287.5 303.5 M 341.5 311.5 L 341.5 303.5" stroke-opacity="1" stroke-linejoin="bevel" stroke-miterlimit="10"/><path fill="none" stroke="rgb(0,0,0)" paint-order="fill" d="M 58.5 309.5 L 58.5 305.5 M 69.5 309.5 L 69.5 305.5 M 80.5 309.5 L 80.5 305.5 M 90.5 309.5 L 90.5 305.5 M 101.5 309.5 L 101.5 305.5 M 112.5 309.5 L 112.5 305.5 M 123.5 309.5 L 123.5 305.5 M 134.5 309.5 L 134.5 305.5 M 145.5 309.5 L 145.5 305.5 M 156.5 309.5 L 156.5 305.5 M 167.5 309.5 L 167.5 305.5 M 178.5 309.5 L 178.5 305.5 M 189.5 309.5 L 189.5 305.5 M 200.5 309.5 L 200.5 305.5 M 210.5 309.5 L 210.5 305.5 M 221.5 309.5 L 221.5 305.5 M 232.5 309.5 L 232.5 305.5 M 243.5 309.5 L 243.5 305.5 M 254.5 309.5 L 254.5 305.5 M 265.5 309.5 L 265.5 305.5 M 276.5 309.5 L 276.5 305.5 M 287.5 309.5 L 287.5 305.5 M 298.5 309.5 L 298.5 305.5 M 309.5 309.5 L 309.5 305.5 M 320.5 309.5 L 320.5 305.5 M 330.5 309.5 L 330.5 305.5 M 341.5 309.5 L 341.5 305.5 M 352.5 309.5 L 352.5 305.5" stroke-opacity="1" stroke-linejoin="bevel" stroke-miterlimit="10"/><text fill="rgb(68,68,68)" stroke="none" font-family="helvetica" font-size="11px" font-style="normal" font-weight="normal" text-decoration="normal" x="65.57752227783203" y="324" text-anchor="start" dominant-baseline="alphabetic" transform="matrix(1, 0, 0, 1, 0.5, 0.5)" fill-opacity="1">0</text><text fill="none" stroke="rgb(0,0,0)" font-family="helvetica" font-size="11px" font-style="normal" font-weight="normal" text-decoration="normal" x="65.57752227783203" y="324" text-anchor="start" dominant-baseline="alphabetic" transform="matrix(1, 0, 0, 1, 0.5, 0.5)" stroke-opacity="0" stroke-linejoin="bevel" stroke-miterlimit="10">0</text><text fill="rgb(68,68,68)" stroke="none" font-family="helvetica" font-size="11px" font-style="normal" font-weight="normal" text-decoration="normal" x="117.06414031982422" y="324" text-anchor="start" dominant-baseline="alphabetic" transform="matrix(1, 0, 0, 1, 0.5, 0.5)" fill-opacity="1">20</text><text fill="none" stroke="rgb(0,0,0)" font-family="helvetica" font-size="11px" font-style="normal" font-weight="normal" text-decoration="normal" x="117.06414031982422" y="324" text-anchor="start" dominant-baseline="alphabetic" transform="matrix(1, 0, 0, 1, 0.5, 0.5)" stroke-opacity="0" stroke-linejoin="bevel" stroke-miterlimit="10">20</text><text fill="rgb(68,68,68)" stroke="none" font-family="helvetica" font-size="11px" font-style="normal" font-weight="normal" text-decoration="normal" x="171.60960388183594" y="324" text-anchor="start" dominant-baseline="alphabetic" transform="matrix(1, 0, 0, 1, 0.5, 0.5)" fill-opacity="1">40</text><text fill="none" stroke="rgb(0,0,0)" font-family="helvetica" font-size="11px" font-style="normal" font-weight="normal" text-decoration="normal" x="171.60960388183594" y="324" text-anchor="start" dominant-baseline="alphabetic" transform="matrix(1, 0, 0, 1, 0.5, 0.5)" stroke-opacity="0" stroke-linejoin="bevel" stroke-miterlimit="10">40</text><text fill="rgb(68,68,68)" stroke="none" font-family="helvetica" font-size="11px" font-style="normal" font-weight="normal" text-decoration="normal" x="226.15504455566406" y="324" text-anchor="start" dominant-baseline="alphabetic" transform="matrix(1, 0, 0, 1, 0.5, 0.5)" fill-opacity="1">60</text><text fill="none" stroke="rgb(0,0,0)" font-family="helvetica" font-size="11px" font-style="normal" font-weight="normal" text-decoration="normal" x="226.15504455566406" y="324" text-anchor="start" dominant-baseline="alphabetic" transform="matrix(1, 0, 0, 1, 0.5, 0.5)" stroke-opacity="0" stroke-linejoin="bevel" stroke-miterlimit="10">60</text><text fill="rgb(68,68,68)" stroke="none" font-family="helvetica" font-size="11px" font-style="normal" font-weight="normal" text-decoration="normal" x="280.70050048828125" y="324" text-anchor="start" dominant-baseline="alphabetic" transform="matrix(1, 0, 0, 1, 0.5, 0.5)" fill-opacity="1">80</text><text fill="none" stroke="rgb(0,0,0)" font-family="helvetica" font-size="11px" font-style="normal" font-weight="normal" text-decoration="normal" x="280.70050048828125" y="324" text-anchor="start" dominant-baseline="alphabetic" transform="matrix(1, 0, 0, 1, 0.5, 0.5)" stroke-opacity="0" stroke-linejoin="bevel" stroke-miterlimit="10">80</text><text fill="rgb(68,68,68)" stroke="none" font-family="helvetica" font-size="11px" font-style="normal" font-weight="normal" text-decoration="normal" x="332.1871337890625" y="324" text-anchor="start" dominant-baseline="alphabetic" transform="matrix(1, 0, 0, 1, 0.5, 0.5)" fill-opacity="1">100</text><text fill="none" stroke="rgb(0,0,0)" font-family="helvetica" font-size="11px" font-style="normal" font-weight="normal" text-decoration="normal" x="332.1871337890625" y="324" text-anchor="start" dominant-baseline="alphabetic" transform="matrix(1, 0, 0, 1, 0.5, 0.5)" stroke-opacity="0" stroke-linejoin="bevel" stroke-miterlimit="10">100</text><text fill="rgb(68,68,68)" stroke="none" font-family="helvetica" font-size="13px" font-style="italic" font-weight="normal" text-decoration="normal" x="134.544189453125" y="344" text-anchor="start" dominant-baseline="alphabetic" transform="matrix(1, 0, 0, 1, 0.5, 0.5)" fill-opacity="1">confidence when correct</text><text fill="none" stroke="rgb(0,0,0)" font-family="helvetica" font-size="13px" font-style="italic" font-weight="normal" text-decoration="normal" x="134.544189453125" y="344" text-anchor="start" dominant-baseline="alphabetic" transform="matrix(1, 0, 0, 1, 0.5, 0.5)" stroke-opacity="0" stroke-linejoin="bevel" stroke-miterlimit="10">confidence when correct</text><path fill="none" stroke="rgb(0,0,0)" paint-order="fill" d="M 55.5 305.5 L 55.5 5.5" stroke-opacity="1" stroke-linejoin="bevel" stroke-miterlimit="10"/><path fill="none" stroke="rgb(0,0,0)" paint-order="fill" d="M 49.5 291.5 L 57.5 291.5 M 49.5 237.5 L 57.5 237.5 M 49.5 182.5 L 57.5 182.5 M 49.5 128.5 L 57.5 128.5 M 49.5 73.5 L 57.5 73.5 M 49.5 19.5 L 57.5 19.5" stroke-opacity="1" stroke-linejoin="bevel" stroke-miterlimit="10"/><path fill="none" stroke="rgb(0,0,0)" paint-order="fill" d="M 51.5 302.5 L 55.5 302.5 M 51.5 291.5 L 55.5 291.5 M 51.5 280.5 L 55.5 280.5 M 51.5 270.5 L 55.5 270.5 M 51.5 259.5 L 55.5 259.5 M 51.5 248.5 L 55.5 248.5 M 51.5 237.5 L 55.5 237.5 M 51.5 226.5 L 55.5 226.5 M 51.5 215.5 L 55.5 215.5 M 51.5 204.5 L 55.5 204.5 M 51.5 193.5 L 55.5 193.5 M 51.5 182.5 L 55.5 182.5 M 51.5 171.5 L 55.5 171.5 M 51.5 160.5 L 55.5 160.5 M 51.5 150.5 L 55.5 150.5 M 51.5 139.5 L 55.5 139.5 M 51.5 128.5 L 55.5 128.5 M 51.5 117.5 L 55.5 117.5 M 51.5 106.5 L 55.5 106.5 M 51.5 95.5 L 55.5 95.5 M 51.5 84.5 L 55.5 84.5 M 51.5 73.5 L 55.5 73.5 M 51.5 62.5 L 55.5 62.5 M 51.5 51.5 L 55.5 51.5 M 51.5 40.5 L 55.5 40.5 M 51.5 30.5 L 55.5 30.5 M 51.5 19.5 L 55.5 19.5 M 51.5 8.5 L 55.5 8.5" stroke-opacity="1" stroke-linejoin="bevel" stroke-miterlimit="10"/><text fill="rgb(68,68,68)" stroke="none" font-family="helvetica" font-size="11px" font-style="normal" font-weight="normal" text-decoration="normal" x="37.88232421875" y="295.3636474609375" text-anchor="start" dominant-baseline="alphabetic" transform="matrix(1, 0, 0, 1, 0.5, 0.5)" fill-opacity="1">0</text><text fill="none" stroke="rgb(0,0,0)" font-family="helvetica" font-size="11px" font-style="normal" font-weight="normal" text-decoration="normal" x="37.88232421875" y="295.3636474609375" text-anchor="start" dominant-baseline="alphabetic" transform="matrix(1, 0, 0, 1, 0.5, 0.5)" stroke-opacity="0" stroke-linejoin="bevel" stroke-miterlimit="10">0</text><text fill="rgb(68,68,68)" stroke="none" font-family="helvetica" font-size="11px" font-style="normal" font-weight="normal" text-decoration="normal" x="31.7646484375" y="240.81817626953125" text-anchor="start" dominant-baseline="alphabetic" transform="matrix(1, 0, 0, 1, 0.5, 0.5)" fill-opacity="1">20</text><text fill="none" stroke="rgb(0,0,0)" font-family="helvetica" font-size="11px" font-style="normal" font-weight="normal" text-decoration="normal" x="31.7646484375" y="240.81817626953125" text-anchor="start" dominant-baseline="alphabetic" transform="matrix(1, 0, 0, 1, 0.5, 0.5)" stroke-opacity="0" stroke-linejoin="bevel" stroke-miterlimit="10">20</text><text fill="rgb(68,68,68)" stroke="none" font-family="helvetica" font-size="11px" font-style="normal" font-weight="normal" text-decoration="normal" x="31.7646484375" y="186.27272033691406" text-anchor="start" dominant-baseline="alphabetic" transform="matrix(1, 0, 0, 1, 0.5, 0.5)" fill-opacity="1">40</text><text fill="none" stroke="rgb(0,0,0)" font-family="helvetica" font-size="11px" font-style="normal" font-weight="normal" text-decoration="normal" x="31.7646484375" y="186.27272033691406" text-anchor="start" dominant-baseline="alphabetic" transform="matrix(1, 0, 0, 1, 0.5, 0.5)" stroke-opacity="0" stroke-linejoin="bevel" stroke-miterlimit="10">40</text><text fill="rgb(68,68,68)" stroke="none" font-family="helvetica" font-size="11px" font-style="normal" font-weight="normal" text-decoration="normal" x="31.7646484375" y="131.7272720336914" text-anchor="start" dominant-baseline="alphabetic" transform="matrix(1, 0, 0, 1, 0.5, 0.5)" fill-opacity="1">60</text><text fill="none" stroke="rgb(0,0,0)" font-family="helvetica" font-size="11px" font-style="normal" font-weight="normal" text-decoration="normal" x="31.7646484375" y="131.7272720336914" text-anchor="start" dominant-baseline="alphabetic" transform="matrix(1, 0, 0, 1, 0.5, 0.5)" stroke-opacity="0" stroke-linejoin="bevel" stroke-miterlimit="10">60</text><text fill="rgb(68,68,68)" stroke="none" font-family="helvetica" font-size="11px" font-style="normal" font-weight="normal" text-decoration="normal" x="31.7646484375" y="77.18181610107422" text-anchor="start" dominant-baseline="alphabetic" transform="matrix(1, 0, 0, 1, 0.5, 0.5)" fill-opacity="1">80</text><text fill="none" stroke="rgb(0,0,0)" font-family="helvetica" font-size="11px" font-style="normal" font-weight="normal" text-decoration="normal" x="31.7646484375" y="77.18181610107422" text-anchor="start" dominant-baseline="alphabetic" transform="matrix(1, 0, 0, 1, 0.5, 0.5)" stroke-opacity="0" stroke-linejoin="bevel" stroke-miterlimit="10">80</text><text fill="rgb(68,68,68)" stroke="none" font-family="helvetica" font-size="11px" font-style="normal" font-weight="normal" text-decoration="normal" x="25.64697265625" y="22.636363983154297" text-anchor="start" dominant-baseline="alphabetic" transform="matrix(1, 0, 0, 1, 0.5, 0.5)" fill-opacity="1">100</text><text fill="none" stroke="rgb(0,0,0)" font-family="helvetica" font-size="11px" font-style="normal" font-weight="normal" text-decoration="normal" x="25.64697265625" y="22.636363983154297" text-anchor="start" dominant-baseline="alphabetic" transform="matrix(1, 0, 0, 1, 0.5, 0.5)" stroke-opacity="0" stroke-linejoin="bevel" stroke-miterlimit="10">100</text><text fill="rgb(68,68,68)" stroke="none" font-family="helvetica" font-size="13px" font-style="italic" font-weight="normal" text-decoration="normal" x="-57.867919921875" y="152" text-anchor="start" dominant-baseline="alphabetic" transform="matrix(6.123233995736766e-17, -1, 1, 6.123233995736766e-17, -136.85302734375, 173.14697265625)" fill-opacity="1">confidence when incorrect</text><text fill="none" stroke="rgb(0,0,0)" font-family="helvetica" font-size="13px" font-style="italic" font-weight="normal" text-decoration="normal" x="-57.867919921875" y="152" text-anchor="start" dominant-baseline="alphabetic" transform="matrix(6.123233995736766e-17, -1, 1, 6.123233995736766e-17, -136.85302734375, 173.14697265625)" stroke-opacity="0" stroke-linejoin="bevel" stroke-miterlimit="10">confidence when incorrect</text><path fill="rgb(255,255,255)" stroke="rgb(229,229,229)" paint-order="fill" d="M 65.5 15.5 L 202.5 15.5 L 202.5 78.5 L 65.5 78.5 L 65.5 15.5 Z" fill-opacity="0.9490196078431372" clip-path="url(#oEDcENSmrnBA)" stroke-opacity="0.5019607843137255" stroke-linejoin="bevel" stroke-miterlimit="10"/><path fill="rgb(31,119,180)" stroke="rgb(31,119,180)" paint-order="fill" d="M 89.5 35.5 A 4 4 0 0 1 81.5 35.5 A 4 4 0 0 1 89.5 35.5" fill-opacity="1" clip-path="url(#oEDcENSmrnBA)" stroke-opacity="1" stroke-linejoin="bevel" stroke-miterlimit="10"/><g clip-path="url(#oEDcENSmrnBA)"><text fill="rgb(68,68,68)" stroke="none" font-family="helvetica" font-size="13px" font-style="normal" font-weight="normal" text-decoration="normal" x="0" y="4.5" text-anchor="start" dominant-baseline="alphabetic" transform="matrix(1, 0, 0, 1, 100.5, 35.5)" fill-opacity="1">normal sleepers</text></g><g clip-path="url(#oEDcENSmrnBA)"><text fill="none" stroke="rgb(0,0,0)" font-family="helvetica" font-size="13px" font-style="normal" font-weight="normal" text-decoration="normal" x="0" y="4.5" text-anchor="start" dominant-baseline="alphabetic" transform="matrix(1, 0, 0, 1, 100.5, 35.5)" stroke-opacity="0" stroke-linejoin="bevel" stroke-miterlimit="10">normal sleepers</text></g><path fill="rgb(255,165,0)" stroke="rgb(255,165,0)" paint-order="fill" d="M 89.5 58.5 A 4 4 0 0 1 81.5 58.5 A 4 4 0 0 1 89.5 58.5" fill-opacity="1" clip-path="url(#oEDcENSmrnBA)" stroke-opacity="1" stroke-linejoin="bevel" stroke-miterlimit="10"/><g clip-path="url(#oEDcENSmrnBA)"><text fill="rgb(68,68,68)" stroke="none" font-family="helvetica" font-size="13px" font-style="normal" font-weight="normal" text-decoration="normal" x="0" y="4.5" text-anchor="start" dominant-baseline="alphabetic" transform="matrix(1, 0, 0, 1, 100.5, 58.5)" fill-opacity="1">insomniacs</text></g><g clip-path="url(#oEDcENSmrnBA)"><text fill="none" stroke="rgb(0,0,0)" font-family="helvetica" font-size="13px" font-style="normal" font-weight="normal" text-decoration="normal" x="0" y="4.5" text-anchor="start" dominant-baseline="alphabetic" transform="matrix(1, 0, 0, 1, 100.5, 58.5)" stroke-opacity="0" stroke-linejoin="bevel" stroke-miterlimit="10">insomniacs</text></g></svg>